<?xml version="1.0" encoding="UTF-8"?>
<svg xmlns="http://www.w3.org/2000/svg" xmlns:xlink="http://www.w3.org/1999/xlink" id="svg" width="400" height="379.7270955165692" viewBox="0, 0, 400,379.7270955165692">
   <g id="svgg">
      <path id="path0" d="M139.734 12.909 C 126.405 16.497,116.398 25.652,112.191 38.107 L 110.578 42.885 97.745 42.885 C 80.473 42.885,78.752 43.877,78.752 53.838 L 78.752 58.480 64.881 58.480 C 44.632 58.480,37.355 60.777,28.013 70.119 C 22.512 75.620,19.515 80.885,17.568 88.468 C 15.764 95.492,15.764 302.169,17.568 309.193 C 21.289 323.686,31.870 334.266,46.363 337.988 C 53.083 339.714,164.984 339.789,168.308 338.070 C 173.225 335.527,173.440 326.993,168.645 324.656 C 167.878 324.282,140.760 323.801,108.382 323.587 L 49.513 323.197 45.083 321.021 C 40.064 318.557,36.401 314.779,34.001 309.591 L 32.359 306.043 32.359 198.830 L 32.359 91.618 34.534 87.188 C 39.599 76.874,44.893 74.545,64.034 74.210 L 78.556 73.955 78.902 80.837 C 79.456 91.868,83.417 98.549,91.866 102.698 L 96.296 104.873 148.928 104.873 L 201.559 104.873 205.990 102.698 C 214.539 98.499,218.447 92.027,218.953 81.227 L 219.295 73.955 233.819 74.210 C 250.715 74.505,254.737 75.740,260.089 82.271 C 266.080 89.583,265.887 87.553,265.887 143.127 C 265.887 199.807,265.750 198.830,273.684 198.830 C 281.610 198.830,281.481 199.741,281.481 143.652 C 281.481 82.638,281.309 81.545,269.855 70.119 C 260.488 60.774,253.217 58.480,232.975 58.480 L 219.103 58.480 219.103 53.762 C 219.103 43.934,217.265 42.885,200.036 42.885 L 187.280 42.885 185.904 38.510 C 179.992 19.715,158.573 7.838,139.734 12.909 M159.450 29.983 C 166.415 33.391,172.320 42.338,172.320 49.484 C 172.320 57.230,174.914 58.480,190.994 58.480 L 203.509 58.480 203.509 71.423 L 203.509 84.366 200.858 87.018 L 198.207 89.669 149.321 89.669 C 88.635 89.669,94.347 91.617,94.347 70.918 L 94.347 58.480 106.786 58.480 C 122.537 58.480,125.536 57.137,125.536 50.083 C 125.536 33.485,144.109 22.478,159.450 29.983 M67.142 137.540 C 62.542 140.090,61.932 145.518,65.809 149.396 L 68.460 152.047 148.499 152.047 C 216.247 152.047,228.867 151.876,230.686 150.936 C 235.875 148.252,235.875 140.247,230.686 137.563 C 227.600 135.967,70.020 135.945,67.142 137.540 M67.142 184.324 C 62.542 186.874,61.932 192.302,65.809 196.179 L 68.460 198.830 148.499 198.830 C 216.247 198.830,228.867 198.660,230.686 197.719 C 235.875 195.036,235.875 187.030,230.686 184.347 C 227.600 182.751,70.020 182.729,67.142 184.324 M67.142 231.108 C 62.542 233.657,61.932 239.086,65.809 242.963 L 68.460 245.614 140.701 245.614 C 219.166 245.614,216.152 245.780,218.172 241.347 C 219.995 237.347,218.680 232.986,215.092 231.131 C 212.008 229.536,70.017 229.514,67.142 231.108 M276.413 231.260 C 253.738 236.331,235.912 252.490,227.993 275.155 L 226.227 280.206 222.081 281.242 C 176.809 292.545,177.439 359.611,222.907 369.249 C 229.412 370.628,338.688 370.881,346.979 369.537 C 382.152 363.832,401.313 322.960,383.871 290.838 C 376.805 277.824,362.155 266.680,349.442 264.647 C 346.552 264.185,345.852 263.610,342.992 259.355 C 328.274 237.456,300.714 225.826,276.413 231.260 M299.025 246.783 C 312.000 249.498,324.954 258.992,331.659 270.701 C 335.555 277.505,336.507 278.270,342.225 279.190 C 378.505 285.033,387.189 333.450,354.981 350.316 C 346.303 354.860,345.954 354.881,283.041 354.622 L 225.731 354.386 220.833 352.124 C 192.480 339.031,202.029 295.517,233.255 295.517 C 236.746 295.517,240.531 291.441,241.221 286.940 C 245.347 260.012,272.407 241.214,299.025 246.783 "  fill-rule="evenodd" />
   </g>
</svg>