<?xml version="1.0" encoding="UTF-8"?>
<svg xmlns="http://www.w3.org/2000/svg" xmlns:xlink="http://www.w3.org/1999/xlink" id="copytocloudsvg" width="400" height="400" viewBox="0, 0, 400,400">
   <g id="copytocloudgrapthics">
      <path id="path0" d="M156.703 56.609 C 146.247 59.423,138.398 66.605,135.098 76.375 L 133.833 80.122 123.767 80.122 C 110.218 80.122,108.869 80.901,108.869 88.714 L 108.869 92.355 97.988 92.355 C 76.216 92.355,65.107 99.395,60.875 115.878 C 59.460 121.388,59.460 283.505,60.875 289.015 C 63.794 300.384,72.093 308.683,83.462 311.602 C 88.733 312.956,176.509 313.015,179.116 311.667 C 182.973 309.672,183.142 302.978,179.380 301.144 C 178.779 300.851,157.508 300.474,132.110 300.306 L 85.933 300.000 82.458 298.294 C 78.521 296.360,75.648 293.397,73.765 289.328 L 72.477 286.544 72.477 202.446 L 72.477 118.349 74.184 114.874 C 78.156 106.783,82.309 104.956,97.324 104.693 L 108.714 104.494 108.986 109.892 C 109.420 118.545,112.528 123.785,119.155 127.040 L 122.630 128.746 163.914 128.746 L 205.199 128.746 208.674 127.040 C 215.380 123.746,218.445 118.670,218.843 110.198 L 219.110 104.494 230.503 104.693 C 243.757 104.926,246.911 105.894,251.109 111.017 C 255.809 116.752,255.657 115.160,255.657 158.753 C 255.657 203.212,255.550 202.446,261.774 202.446 C 267.991 202.446,267.890 203.161,267.890 159.164 C 267.890 111.305,267.754 110.448,258.770 101.484 C 251.423 94.155,245.719 92.355,229.841 92.355 L 218.960 92.355 218.960 88.655 C 218.960 80.945,217.518 80.122,204.004 80.122 L 193.998 80.122 192.918 76.691 C 188.281 61.948,171.480 52.631,156.703 56.609 M172.168 70.002 C 177.631 72.675,182.263 79.693,182.263 85.299 C 182.263 91.374,184.298 92.355,196.912 92.355 L 206.728 92.355 206.728 102.508 L 206.728 112.661 204.648 114.740 L 202.569 116.820 164.223 116.820 C 116.620 116.820,121.101 118.348,121.101 102.112 L 121.101 92.355 130.858 92.355 C 143.214 92.355,145.566 91.301,145.566 85.768 C 145.566 72.749,160.134 64.115,172.168 70.002 M99.762 154.370 C 96.153 156.370,95.674 160.628,98.716 163.670 L 100.795 165.749 163.578 165.749 C 216.720 165.749,226.619 165.615,228.046 164.878 C 232.116 162.773,232.116 156.493,228.046 154.388 C 225.625 153.137,102.019 153.119,99.762 154.370 M99.762 191.068 C 96.153 193.068,95.674 197.326,98.716 200.367 L 100.795 202.446 163.578 202.446 C 216.720 202.446,226.619 202.313,228.046 201.575 C 232.116 199.470,232.116 193.191,228.046 191.086 C 225.625 189.834,102.019 189.816,99.762 191.068 M99.762 227.765 C 96.153 229.765,95.674 234.023,98.716 237.064 L 100.795 239.144 157.462 239.144 C 219.009 239.144,216.645 239.274,218.230 235.797 C 219.659 232.659,218.628 229.239,215.813 227.783 C 213.395 226.532,102.017 226.515,99.762 227.765 M263.914 227.885 C 246.128 231.862,232.145 244.537,225.933 262.316 L 224.548 266.278 221.296 267.090 C 185.785 275.956,186.279 328.564,221.944 336.123 C 227.047 337.205,312.763 337.404,319.266 336.349 C 346.857 331.875,361.886 299.814,348.205 274.618 C 342.662 264.410,331.171 255.668,321.199 254.073 C 318.931 253.711,318.382 253.260,316.139 249.922 C 304.594 232.744,282.976 223.622,263.914 227.885 M281.651 240.061 C 291.829 242.190,301.990 249.637,307.249 258.822 C 310.306 264.159,311.052 264.759,315.537 265.481 C 343.996 270.064,350.807 308.043,325.543 321.272 C 318.736 324.837,318.462 324.853,269.113 324.650 L 224.159 324.465 220.317 322.691 C 198.077 312.421,205.567 278.287,230.061 278.287 C 232.799 278.287,235.768 275.091,236.309 271.560 C 239.546 250.438,260.772 235.692,281.651 240.061 " fill-rule="evenodd" />
   </g>
</svg>