<svg xmlns="http://www.w3.org/2000/svg" xmlns:xlink="http://www.w3.org/1999/xlink" 
     width="400"
     height="406.48298217179905" 
     viewBox="0, 0, 400,406.48298217179905">
    
    <g>
        <path
                d="M60.292 44.361 C 53.062 46.380,46.731 51.994,43.968 58.835 L 42.464 62.561 42.464 99.223 L 42.464 135.885 44.851 140.714 C 46.164 143.370,48.120 146.388,49.199 147.420 L 51.159 149.297 48.529 152.282 C 42.154 159.518,42.155 159.509,42.155 199.676 C 42.155 239.842,42.154 239.834,48.529 247.069 L 51.159 250.054 49.199 251.931 C 48.120 252.964,46.164 255.982,44.851 258.638 L 42.464 263.467 42.464 300.129 L 42.464 336.791 43.968 340.516 C 45.813 345.087,51.011 350.926,55.046 352.962 C 61.225 356.080,56.975 355.999,202.917 355.789 L 340.681 355.592 344.571 354.052 C 348.936 352.325,354.897 346.840,357.098 342.526 C 359.686 337.452,359.894 333.842,359.683 297.569 L 359.481 262.885 357.017 258.274 C 355.661 255.738,353.705 252.851,352.669 251.859 L 350.785 250.054 353.441 247.069 C 354.902 245.428,356.859 242.480,357.789 240.519 L 359.481 236.953 359.481 199.676 L 359.481 162.399 357.789 158.833 C 356.859 156.872,354.902 153.924,353.441 152.282 L 350.785 149.297 352.669 147.493 C 353.705 146.500,355.661 143.614,357.017 141.078 L 359.481 136.467 359.683 101.783 C 359.894 65.510,359.686 61.899,357.098 56.825 C 354.897 52.512,348.936 47.027,344.571 45.299 L 340.681 43.760 201.945 43.653 C 92.271 43.568,62.598 43.717,60.292 44.361 M343.376 56.784 C 344.746 57.886,346.596 60.074,347.488 61.646 L 349.109 64.506 349.109 98.865 L 349.109 133.225 347.586 136.318 C 346.599 138.323,345.003 140.146,343.048 141.504 L 340.032 143.598 200.972 143.598 L 61.912 143.598 59.193 141.830 C 57.693 140.854,55.658 138.674,54.655 136.967 L 52.836 133.874 52.836 99.190 C 52.836 60.814,52.709 62.034,57.149 57.904 C 61.137 54.194,50.049 54.446,201.723 54.621 L 340.885 54.781 343.376 56.784 M90.023 76.661 C 65.018 85.432,71.138 122.600,97.588 122.600 C 118.516 122.600,129.144 97.940,114.767 82.738 C 108.355 75.959,98.750 73.599,90.023 76.661 M219.680 86.543 C 216.765 88.153,216.052 92.782,218.393 94.900 C 223.237 99.284,230.426 92.753,226.094 87.905 C 224.245 85.836,221.873 85.332,219.680 86.543 M241.398 86.218 C 240.634 86.527,239.540 87.448,238.967 88.266 C 235.450 93.288,242.500 99.049,247.085 94.900 C 251.100 91.267,246.457 84.177,241.398 86.218 M263.209 86.040 C 258.362 87.779,257.937 94.033,262.536 95.938 C 266.196 97.454,269.692 95.001,269.692 90.917 C 269.692 88.011,265.824 85.101,263.209 86.040 M283.213 86.543 C 280.298 88.153,279.585 92.782,281.926 94.900 C 286.770 99.284,293.959 92.753,289.627 87.905 C 287.778 85.836,285.407 85.332,283.213 86.543 M304.932 86.218 C 304.167 86.527,303.073 87.448,302.500 88.266 C 298.983 93.288,306.033 99.049,310.618 94.900 C 314.633 91.267,309.990 84.177,304.932 86.218 M105.474 88.549 C 114.830 95.993,110.917 110.882,99.311 111.997 C 88.256 113.060,80.824 101.624,86.555 92.370 C 90.533 85.948,99.841 84.068,105.474 88.549 M229.144 103.374 C 225.928 106.590,228.207 112.156,232.739 112.156 C 235.404 112.156,237.925 109.634,237.925 106.969 C 237.925 104.304,235.404 101.783,232.739 101.783 C 231.476 101.783,230.147 102.371,229.144 103.374 M250.565 103.241 C 247.091 106.229,249.228 112.156,253.778 112.156 C 258.016 112.156,260.364 108.277,258.412 104.502 C 256.793 101.372,253.376 100.823,250.565 103.241 M272.434 102.217 C 270.960 102.810,269.583 106.295,270.026 108.312 C 271.323 114.214,280.375 112.888,280.203 106.822 C 280.102 103.261,275.952 100.801,272.434 102.217 M292.677 103.374 C 289.461 106.590,291.740 112.156,296.272 112.156 C 298.938 112.156,301.459 109.634,301.459 106.969 C 301.459 104.304,298.938 101.783,296.272 101.783 C 295.009 101.783,293.680 102.371,292.677 103.374 M314.098 103.241 C 310.625 106.229,312.761 112.156,317.311 112.156 C 321.549 112.156,323.897 108.277,321.945 104.502 C 320.327 101.372,316.909 100.823,314.098 103.241 M340.855 155.947 C 349.173 159.422,349.109 159.082,349.109 199.676 C 349.109 240.269,349.173 239.930,340.855 243.405 C 337.194 244.935,64.751 244.935,61.090 243.405 C 52.772 239.930,52.836 240.269,52.836 199.676 C 52.836 159.173,52.772 159.520,60.945 155.976 C 64.430 154.465,337.240 154.436,340.855 155.947 M92.382 176.564 C 67.174 183.107,68.383 218.603,93.967 223.110 C 116.874 227.145,130.755 197.527,113.309 181.842 C 107.883 176.964,99.241 174.784,92.382 176.564 M105.474 189.036 C 115.576 197.073,110.447 212.642,97.697 212.642 C 84.198 212.642,79.541 194.511,91.410 188.169 C 95.703 185.875,101.988 186.262,105.474 189.036 M218.476 188.006 C 215.392 191.091,217.802 197.083,222.128 197.083 C 224.303 197.083,227.553 193.794,227.553 191.593 C 227.553 187.513,221.401 185.082,218.476 188.006 M239.517 188.301 C 237.376 190.442,237.482 192.849,239.820 195.188 C 243.717 199.084,248.758 196.284,248.373 190.438 C 248.135 186.819,242.386 185.432,239.517 188.301 M260.729 188.210 C 257.683 191.453,260.080 197.083,264.506 197.083 C 269.004 197.083,271.436 191.168,268.192 188.119 C 266.135 186.188,262.588 186.231,260.729 188.210 M282.010 188.006 C 278.925 191.091,281.335 197.083,285.661 197.083 C 287.837 197.083,291.086 193.794,291.086 191.593 C 291.086 187.513,284.934 185.082,282.010 188.006 M303.050 188.301 C 300.909 190.442,301.015 192.849,303.354 195.188 C 307.250 199.084,312.291 196.284,311.906 190.438 C 311.668 186.819,305.919 185.432,303.050 188.301 M229.144 203.860 C 225.747 207.257,228.007 212.642,232.830 212.642 C 235.739 212.642,237.925 210.456,237.925 207.546 C 237.925 204.787,235.450 202.269,232.739 202.269 C 231.476 202.269,230.147 202.857,229.144 203.860 M250.639 203.728 C 246.952 207.045,248.961 212.642,253.838 212.642 C 258.793 212.642,260.906 207.646,257.424 204.164 C 255.142 201.881,252.855 201.734,250.639 203.728 M271.587 204.164 C 269.249 206.503,269.142 208.910,271.283 211.051 C 274.152 213.919,279.901 212.532,280.139 208.914 C 280.524 203.067,275.484 200.268,271.587 204.164 M292.677 203.860 C 289.280 207.257,291.541 212.642,296.363 212.642 C 299.272 212.642,301.459 210.456,301.459 207.546 C 301.459 204.787,298.984 202.269,296.272 202.269 C 295.009 202.269,293.680 202.857,292.677 203.860 M314.172 203.728 C 310.486 207.045,312.494 212.642,317.371 212.642 C 322.326 212.642,324.440 207.646,320.957 204.164 C 318.675 201.881,316.388 201.734,314.172 203.728 M343.048 257.848 C 345.003 259.205,346.599 261.029,347.586 263.034 L 349.109 266.126 349.109 300.486 L 349.109 334.846 347.488 337.705 C 346.596 339.278,344.746 341.466,343.376 342.568 L 340.885 344.571 200.972 344.571 L 61.060 344.571 58.569 342.568 C 57.199 341.466,55.348 339.278,54.457 337.705 L 52.836 334.846 52.836 300.162 L 52.836 265.478 54.655 262.384 C 56.386 259.439,59.864 256.598,62.596 255.899 C 63.290 255.721,125.997 255.616,201.945 255.665 L 340.032 255.754 343.048 257.848 M94.151 276.901 C 79.106 278.805,69.567 296.251,76.006 310.087 C 83.186 325.514,103.510 328.746,115.039 316.294 C 130.153 299.969,116.427 274.082,94.151 276.901 M103.788 288.705 C 116.012 295.158,111.428 313.128,97.558 313.128 C 88.749 313.128,82.683 305.312,84.935 296.862 C 85.792 293.644,90.881 288.152,93.460 287.661 C 97.495 286.893,101.034 287.251,103.788 288.705 M218.490 288.802 C 214.605 292.938,219.210 299.237,224.606 297.166 C 226.267 296.529,227.691 293.190,227.218 291.039 C 226.366 287.157,221.264 285.849,218.490 288.802 M240.066 288.169 C 238.155 289.508,237.606 292.478,238.833 294.850 C 240.451 297.980,243.869 298.529,246.680 296.110 C 251.596 291.881,245.395 284.437,240.066 288.169 M260.911 288.787 C 259.907 289.790,259.319 291.119,259.319 292.382 C 259.319 293.646,259.907 294.975,260.911 295.978 C 261.914 296.981,263.243 297.569,264.506 297.569 C 265.769 297.569,267.098 296.981,268.101 295.978 C 269.104 294.975,269.692 293.646,269.692 292.382 C 269.692 291.119,269.104 289.790,268.101 288.787 C 267.098 287.784,265.769 287.196,264.506 287.196 C 263.243 287.196,261.914 287.784,260.911 288.787 M282.024 288.802 C 278.138 292.938,282.743 299.237,288.140 297.166 C 289.800 296.529,291.224 293.190,290.752 291.039 C 289.899 287.157,284.797 285.849,282.024 288.802 M303.599 288.169 C 301.688 289.508,301.140 292.478,302.366 294.850 C 303.985 297.980,307.402 298.529,310.213 296.110 C 315.129 291.881,308.928 284.437,303.599 288.169 M230.470 303.504 C 225.624 306.154,227.282 313.344,232.739 313.344 C 238.032 313.344,239.943 306.112,235.286 303.704 C 233.122 302.585,232.219 302.547,230.470 303.504 M251.841 303.372 C 247.908 304.967,247.722 310.830,251.544 312.806 C 256.971 315.612,261.754 308.980,257.424 304.650 C 255.493 302.719,254.190 302.420,251.841 303.372 M271.663 304.574 C 269.370 306.868,269.152 309.025,270.978 311.347 C 274.462 315.775,281.130 312.547,280.216 306.875 C 279.597 303.032,274.560 301.677,271.663 304.574 M294.003 303.504 C 289.158 306.154,290.816 313.344,296.272 313.344 C 301.565 313.344,303.476 306.112,298.819 303.704 C 296.656 302.585,295.752 302.547,294.003 303.504 M315.375 303.372 C 311.441 304.967,311.256 310.830,315.077 312.806 C 320.504 315.612,325.287 308.980,320.957 304.650 C 319.026 302.719,317.723 302.420,315.375 303.372 "
                fill-rule="evenodd"></path>
    </g>
</svg>