<svg height="512pt" viewBox="-62 0 511 512" width="512pt" xmlns="http://www.w3.org/2000/svg">
    <path d="m351.425781 0h-314.679687c-19.878906 0-36.046875 16.160156-36.046875 36.027344v175.46875c0 5.5625 4.507812 10.070312 10.070312 10.070312 5.558594 0 10.070313-4.507812 10.070313-10.070312v-175.46875c0-8.757813 7.136718-15.886719 15.90625-15.886719h314.679687c8.785157 0 15.933594 7.128906 15.933594 15.886719v439.914062c0 8.777344-7.148437 15.917969-15.933594 15.917969h-314.679687c-8.773438 0-15.90625-7.140625-15.90625-15.925781l-.199219-174.675782c-.007813-5.558593-4.511719-10.058593-10.070313-10.058593-.003906 0-.007812 0-.011718 0-5.5625.003906-10.066406 4.519531-10.058594 10.082031l.199219 174.660156c0 19.882813 16.171875 36.058594 36.046875 36.058594h314.679687c19.890625 0 36.074219-16.175781 36.074219-36.058594v-439.914062c0-19.867188-16.183594-36.027344-36.074219-36.027344zm0 0"/>
    <path d="m142.863281 223.339844c0 28.226562 22.980469 51.191406 51.222657 51.191406 28.242187 0 51.21875-22.964844 51.21875-51.191406 0-28.226563-22.976563-51.1875-51.21875-51.1875-28.242188 0-51.222657 22.960937-51.222657 51.1875zm82.300781 0c0 17.121094-13.941406 31.046875-31.078124 31.046875-17.140626 0-31.082032-13.925781-31.082032-31.046875 0-17.117188 13.941406-31.046875 31.082032-31.046875 17.136718 0 31.078124 13.929687 31.078124 31.046875zm0 0"/>
    <path d="m135.292969 420.769531v28.339844c0 10.675781 8.675781 19.363281 19.34375 19.363281h169.929687c10.683594 0 19.375-8.6875 19.375-19.363281v-28.339844c0-10.660156-8.691406-19.335937-19.375-19.335937h-169.929687c-10.664063 0-19.34375 8.671875-19.34375 19.335937zm20.140625.804688h168.367187v26.757812h-168.367187zm0 0"/>
    <path d="m193.941406 213.269531c-5.558594 0-10.070312 4.507813-10.070312 10.070313s4.511718 10.070312 10.070312 10.070312h.144532c5.558593 0 10.070312-4.507812 10.070312-10.070312s-4.511719-10.070313-10.070312-10.070313zm0 0"/>
    <path d="m62.011719 223.339844c0 28.832031 9.378906 56.636718 26.59375 79.445312-2.921875 2.265625-5.792969 4.753906-8.527344 7.484375-.15625.160157-.3125.324219-.457031.492188-15.789063 18.035156-10.679688 38.664062.75 50.199219 6.84375 6.90625 16.59375 11.402343 26.917968 11.402343 8.152344 0 16.664063-2.804687 24.390626-9.441406.1875-.164063.371093-.332031.546874-.511719 5.171876-5.160156 9.464844-10.808594 13.023438-16.398437 15.476562 6.191406 31.859375 9.339843 48.835938 9.339843 26.023437 0 51.207031-7.554687 72.820312-21.847656 4.640625-3.066406 5.914062-9.316406 2.847656-13.953125-3.066406-4.640625-9.316406-5.914062-13.953125-2.847656-18.3125 12.109375-39.652343 18.507813-61.714843 18.507813-13.691407 0-26.917969-2.40625-39.453126-7.152344 1.453126-3.445313 2.578126-6.527344 3.417969-9.035156 6.019531-18.015626 6.339844-29.921876.945313-35.390626-.03125-.039062-.066406-.074218-.105469-.109374-5.46875-5.382813-17.375-5.0625-35.386719.953124-4.496094 1.5-10.839844 3.929688-17.804687 7.515626-15.234375-19.570313-23.550781-43.65625-23.550781-68.648438 0-61.667969 50.214843-111.839844 111.933593-111.839844 61.738281 0 111.964844 50.171875 111.964844 111.839844 0 9.25-1.148437 18.5-3.414063 27.496094-1.355468 5.390625 1.917969 10.863281 7.308594 12.222656 5.398438 1.359375 10.867188-1.914062 12.222656-7.308594 2.667969-10.597656 4.019532-21.503906 4.019532-32.410156 0-72.773438-59.261719-131.980469-132.101563-131.980469-72.820312-.003906-132.070312 59.203125-132.070312 131.976563zm80.128906 77.046875c-1.148437 6.527343-4.121094 16.886719-9.5625 27.398437-.199219.320313-.390625.652344-.558594 1-.058593.117188-.101562.238282-.152343.359375-3.515626 6.539063-7.992188 13.074219-13.585938 18.726563-8.519531 7.101562-17.96875 4.597656-23.601562-1.089844-5.042969-5.089844-7.6875-13.652344-.117188-22.511719 4.152344-4.101562 8.773438-7.601562 13.523438-10.5625.34375-.183593.675781-.386719 1-.613281 12.335937-7.464844 25.359374-11.351562 33.054687-12.707031zm0 0"/>
    <path d="m75.058594 39.671875c-19.203125 0-34.828125 15.617187-34.828125 34.8125 0 19.191406 15.625 34.808594 34.828125 34.808594 19.207031 0 34.828125-15.617188 34.828125-34.808594 0-19.195313-15.621094-34.8125-34.828125-34.8125zm0 49.480469c-8.097656 0-14.6875-6.582032-14.6875-14.667969 0-8.089844 6.589844-14.667969 14.6875-14.667969 8.101562 0 14.6875 6.578125 14.6875 14.667969 0 8.085937-6.589844 14.667969-14.6875 14.667969zm0 0"/>
    <path d="m312.796875 39.671875c-19.203125 0-34.828125 15.617187-34.828125 34.8125 0 19.191406 15.625 34.808594 34.828125 34.808594 19.222656 0 34.855469-15.617188 34.855469-34.808594.003906-19.195313-15.632813-34.8125-34.855469-34.8125zm0 49.480469c-8.097656 0-14.6875-6.582032-14.6875-14.667969 0-8.089844 6.589844-14.667969 14.6875-14.667969 8.117187 0 14.71875 6.578125 14.71875 14.667969 0 8.085937-6.601563 14.667969-14.71875 14.667969zm0 0"/>
    <path d="m75.203125 402.707031c-19.207031 0-34.828125 15.617188-34.828125 34.8125 0 19.191407 15.621094 34.808594 34.828125 34.808594 19.203125 0 34.828125-15.617187 34.828125-34.808594 0-19.195312-15.625-34.8125-34.828125-34.8125zm0 49.480469c-8.101563 0-14.6875-6.582031-14.6875-14.667969 0-8.089843 6.585937-14.667969 14.6875-14.667969 8.097656 0 14.6875 6.578126 14.6875 14.667969 0 8.085938-6.589844 14.667969-14.6875 14.667969zm0 0"/>
    <path d="m293.707031 303.832031c2.886719 0 5.75-1.234375 7.742188-3.625l.140625-.171875c3.5625-4.269531 2.984375-10.621094-1.289063-14.183594-4.273437-3.5625-10.621093-2.984374-14.183593 1.289063l-.140626.171875c-3.5625 4.273438-2.984374 10.621094 1.289063 14.183594 1.882813 1.570312 4.167969 2.335937 6.441406 2.335937zm0 0"/>
    <path d="m10.570312 266.566406c5.5625 0 10.070313-4.507812 10.070313-10.070312v-.199219c0-5.5625-4.507813-10.070313-10.070313-10.070313s-10.070312 4.507813-10.070312 10.070313v.199219c0 5.5625 4.507812 10.070312 10.070312 10.070312zm0 0"/>
</svg>