<svg xmlns="http://www.w3.org/2000/svg" xmlns:xlink="http://www.w3.org/1999/xlink" id="svg" version="1.1" width="400" height="389.1402714932127" viewBox="0, 0, 400,389.1402714932127">
   <g id="svgg">
      <path id="path0" d="M195.621 23.727 C 194.926 23.904,194.137 24.225,193.868 24.440 C 193.599 24.655,192.955 24.962,192.436 25.121 C 187.020 26.786,181.352 34.224,180.292 41.057 C 179.554 45.815,180.207 45.570,168.289 45.570 C 156.901 45.570,157.202 45.521,156.166 47.550 C 154.973 49.889,154.992 79.456,156.188 81.801 C 157.261 83.905,153.926 83.770,201.932 83.651 L 245.149 83.544 246.041 82.221 L 246.933 80.897 246.933 64.654 L 246.933 48.411 246.042 47.088 L 245.150 45.764 234.376 45.570 C 222.009 45.346,222.972 45.696,222.175 41.129 C 220.834 33.448,216.765 28.258,209.321 24.734 C 206.850 23.564,198.635 22.960,195.621 23.727 M205.773 36.995 C 214.215 42.692,209.096 55.142,199.168 53.060 C 191.696 51.492,189.955 41.201,196.467 37.090 C 199.669 35.069,202.871 35.036,205.773 36.995 M115.408 49.488 C 114.082 49.660,112.680 49.966,112.292 50.166 C 111.904 50.366,110.941 50.647,110.152 50.789 C 108.435 51.099,102.683 53.777,100.433 55.314 C 96.611 57.925,91.685 63.039,89.935 66.212 C 89.522 66.962,89.023 67.838,88.826 68.160 C 88.129 69.297,86.758 72.510,86.446 73.734 C 86.272 74.417,85.857 75.940,85.523 77.118 C 84.454 80.895,84.607 306.664,85.681 310.092 C 86.107 311.450,86.458 312.824,86.461 313.145 C 86.471 314.134,89.701 320.221,91.525 322.687 C 95.040 327.442,99.673 331.274,104.771 333.643 C 105.949 334.191,107.352 334.863,107.887 335.137 C 108.423 335.411,109.562 335.757,110.419 335.907 C 111.276 336.056,112.728 336.430,113.646 336.736 C 115.073 337.212,127.751 337.293,201.190 337.293 L 287.066 337.293 290.076 336.463 C 293.100 335.629,297.255 334.075,298.345 333.371 C 298.666 333.164,299.367 332.778,299.903 332.513 C 305.198 329.898,312.219 322.337,314.186 317.133 C 314.450 316.434,314.937 315.475,315.269 315.001 C 315.600 314.528,315.871 313.829,315.871 313.449 C 315.871 313.070,316.266 311.663,316.748 310.323 L 317.624 307.887 317.624 193.574 L 317.624 79.260 316.584 75.671 C 313.224 64.076,302.270 52.778,292.502 50.833 C 291.753 50.684,290.351 50.282,289.387 49.940 C 287.565 49.295,260.999 48.686,258.792 49.240 L 257.838 49.479 257.838 57.644 C 257.838 65.792,257.840 65.808,258.715 66.006 C 259.197 66.116,265.638 66.250,273.028 66.306 C 286.055 66.404,286.521 66.434,288.294 67.283 C 289.300 67.765,290.273 68.160,290.456 68.160 C 292.355 68.160,297.699 73.881,299.522 77.865 L 300.487 79.976 300.487 193.542 L 300.487 307.108 299.243 309.475 C 296.850 314.031,293.299 317.213,288.313 319.268 L 285.686 320.351 201.168 320.351 L 116.650 320.351 113.949 319.238 C 108.808 317.121,105.229 313.753,103.063 308.993 L 101.850 306.329 101.850 193.379 L 101.850 80.428 102.973 77.897 C 105.149 72.991,108.385 69.840,113.729 67.424 C 115.862 66.460,115.933 66.455,130.010 66.308 L 144.148 66.160 144.518 65.187 C 145.023 63.859,144.995 50.781,144.485 49.828 C 144.048 49.012,121.126 48.743,115.408 49.488 M174.049 109.414 C 171.254 112.561,169.319 114.881,167.728 116.993 C 166.902 118.090,166.100 119.075,165.945 119.182 C 165.678 119.367,160.987 125.137,159.179 127.505 C 158.709 128.119,157.833 129.171,157.231 129.842 C 156.629 130.512,154.904 132.579,153.398 134.433 C 150.360 138.175,149.587 138.612,148.228 137.358 C 147.725 136.894,145.770 135.112,143.883 133.398 C 141.995 131.685,140.095 129.932,139.659 129.503 C 137.511 127.391,135.765 126.192,134.822 126.181 C 133.397 126.165,126.212 133.670,126.200 135.187 C 126.192 136.237,128.396 138.418,142.110 150.931 C 143.046 151.785,144.452 153.096,145.236 153.846 C 151.207 159.558,151.315 159.561,155.564 154.201 C 155.973 153.684,156.762 152.723,157.317 152.064 C 157.871 151.405,158.792 150.265,159.363 149.532 C 159.933 148.799,160.786 147.760,161.257 147.225 C 161.729 146.689,163.449 144.586,165.079 142.551 C 166.709 140.516,168.142 138.763,168.262 138.656 C 168.383 138.549,170.107 136.446,172.094 133.982 C 174.081 131.519,175.997 129.153,176.352 128.724 C 188.255 114.360,187.774 115.857,182.030 111.060 C 176.920 106.791,176.462 106.697,174.049 109.414 M192.231 130.930 C 191.176 131.785,190.988 142.300,192.016 142.949 C 192.946 143.537,275.477 143.452,276.066 142.863 C 276.729 142.200,276.712 132.035,276.047 131.138 C 275.299 130.130,193.468 129.927,192.231 130.930 M175.232 170.705 C 174.677 171.180,170.655 175.949,166.295 181.305 C 152.178 198.642,151.024 199.995,150.063 200.334 C 148.993 200.711,149.522 201.098,143.135 195.260 C 140.779 193.106,138.150 190.707,137.293 189.929 C 134.845 187.705,133.826 188.284,127.630 195.425 C 125.238 198.182,125.025 197.833,134.360 206.426 C 136.804 208.676,139.088 210.779,139.437 211.100 C 139.787 211.422,141.112 212.639,142.383 213.806 C 143.654 214.973,145.877 217.032,147.324 218.383 C 151.484 222.266,151.901 221.965,164.081 206.290 C 165.105 204.973,166.724 202.989,167.679 201.882 C 168.634 200.774,170.492 198.496,171.807 196.818 C 173.123 195.141,174.405 193.593,174.658 193.379 C 174.910 193.165,176.504 191.242,178.198 189.107 C 179.893 186.972,181.548 184.935,181.876 184.580 C 182.205 184.225,182.853 183.431,183.316 182.815 C 183.780 182.198,184.530 181.268,184.982 180.746 C 187.029 178.388,186.629 177.368,182.278 173.838 C 176.685 169.301,176.810 169.357,175.232 170.705 M192.016 193.963 C 190.153 195.826,191.070 205.603,193.114 205.668 C 202.634 205.971,275.993 205.506,276.225 205.141 C 276.733 204.341,276.593 194.178,276.066 193.651 C 275.118 192.703,192.971 193.007,192.016 193.963 M175.746 232.775 C 175.313 232.956,167.995 241.802,156.784 255.696 C 152.425 261.099,150.342 263.293,149.578 263.286 C 148.939 263.280,148.260 262.700,141.378 256.280 C 134.706 250.057,134.963 250.102,130.876 254.447 C 124.706 261.008,124.522 259.745,132.784 267.575 C 133.123 267.897,134.627 269.288,136.126 270.668 C 137.625 272.047,140.718 274.907,143.001 277.023 C 152.179 285.531,150.770 285.307,155.840 279.065 C 157.405 277.137,164.871 267.970,172.430 258.693 C 181.312 247.792,186.170 241.523,186.165 240.971 C 186.142 238.719,177.600 231.999,175.746 232.775 M192.015 256.565 C 190.823 258.079,190.960 267.296,192.187 268.192 C 193.220 268.946,275.314 269.029,276.066 268.277 C 276.833 267.510,276.706 256.898,275.922 256.114 C 275.373 255.565,271.042 255.501,234.080 255.501 L 192.851 255.501 192.015 256.565 "  fill-rule="evenodd" />
   </g>
</svg>