<svg id="svg" xmlns="http://www.w3.org/2000/svg" xmlns:xlink="http://www.w3.org/1999/xlink" width="400" height="435.61076604554864" viewBox="0, 0, 400,435.61076604554864"><g id="svgg"><path id="path0" d="M305.176 19.639 C 268.209 24.752,244.120 58.517,249.275 97.995 L 249.689 101.166 229.814 112.535 C 180.338 140.835,130.628 169.081,129.611 169.471 C 128.998 169.706,126.392 168.185,123.821 166.091 C 87.564 136.559,31.021 154.987,18.503 200.414 C 16.403 208.033,16.415 227.651,18.524 235.197 C 31.243 280.711,87.548 299.065,123.821 269.520 C 126.392 267.426,129.014 265.910,129.646 266.153 C 130.740 266.573,187.334 298.730,229.814 323.069 L 249.689 334.457 249.275 337.622 C 239.059 415.705,342.174 448.505,374.663 377.507 C 403.727 313.994,325.237 254.900,271.614 299.924 C 268.025 302.938,265.223 304.703,264.480 304.418 C 263.808 304.160,253.869 298.591,242.395 292.042 C 230.920 285.494,206.625 271.658,188.406 261.296 C 170.186 250.934,153.185 241.198,150.625 239.660 L 145.971 236.864 147.179 232.096 C 147.892 229.285,148.387 223.422,148.387 217.805 C 148.387 212.189,147.892 206.326,147.179 203.514 L 145.971 198.747 150.625 195.952 C 153.185 194.415,171.491 183.933,191.304 172.659 C 211.118 161.385,235.407 147.551,245.280 141.917 C 255.153 136.282,263.788 131.459,264.467 131.198 C 265.227 130.907,267.982 132.637,271.614 135.687 C 305.425 164.075,356.300 152.627,374.663 112.497 C 396.147 65.548,356.483 12.544,305.176 19.639 " fill-rule="evenodd"></path></g></svg>