<svg xmlns="http://www.w3.org/2000/svg" xmlns:xlink="http://www.w3.org/1999/xlink" id="svg22" width="400" height="400" viewBox="0, 0, 400,400">
    <g id="svgg22">
        <path id="path022" d="M257.571 54.050 C 236.531 58.827,221.549 72.869,216.176 92.846 C 213.747 101.877,214.488 116.398,217.757 123.842 C 218.126 124.682,210.225 129.663,174.733 150.966 L 131.256 177.062 127.972 173.966 C 90.666 138.793,29.618 172.238,39.930 222.199 C 48.592 264.168,101.012 279.099,129.844 247.808 C 135.107 242.096,132.440 241.680,150.967 251.102 C 211.859 282.069,216.881 284.707,216.554 285.561 C 210.062 302.478,218.270 328.683,233.974 341.180 C 268.942 369.005,319.678 344.787,319.592 300.313 C 319.500 252.503,262.403 229.857,229.069 264.410 L 224.701 268.938 199.382 256.042 C 185.456 248.949,167.031 239.536,158.438 235.124 C 140.536 225.934,142.336 228.123,143.739 217.246 C 144.645 210.219,144.031 203.691,141.781 196.405 C 140.526 192.342,140.522 192.201,141.651 191.456 C 142.290 191.035,161.775 179.294,184.951 165.365 L 227.090 140.040 231.826 144.551 C 264.670 175.836,319.504 151.712,319.592 105.938 C 319.655 73.006,288.580 47.009,257.571 54.050 M273.479 71.303 C 294.299 75.106,307.493 97.591,300.390 117.160 C 290.347 144.828,254.394 149.517,238.180 125.274 C 221.063 99.682,243.237 65.777,273.479 71.303 M100.259 178.111 C 126.590 184.846,135.369 217.442,116.008 236.581 C 96.512 255.853,64.300 246.901,57.503 220.323 C 50.970 194.782,74.523 171.529,100.259 178.111 M277.813 266.943 C 302.824 274.742,310.535 306.469,291.940 325.065 C 276.255 340.750,250.427 338.273,238.163 319.908 C 219.844 292.476,246.312 257.119,277.813 266.943 " fill-rule="evenodd" />
    </g>
</svg>