<svg xmlns="http://www.w3.org/2000/svg" width="400"
     height="414.03508771929825" viewBox="0, 0, 400,414.03508771929825">
    <path
            d="M68.644 62.242 C 58.219 73.551,57.128 71.872,108.333 123.293 C 164.523 179.719,159.082 175.996,170.181 165.614 C 182.395 154.190,184.134 156.915,130.252 103.058 C 76.852 49.684,78.943 51.069,68.644 62.242 M238.436 67.982 C 236.227 73.814,230.040 80.702,227.012 80.702 C 223.559 80.702,219.344 85.796,220.438 88.647 C 220.982 90.067,222.607 91.228,224.047 91.228 C 227.448 91.228,238.596 102.377,238.596 105.777 C 238.596 107.218,239.758 108.842,241.177 109.387 C 244.086 110.503,249.123 106.240,249.123 102.662 C 249.123 99.829,258.980 91.228,262.228 91.228 C 263.498 91.228,264.983 90.067,265.527 88.647 C 266.621 85.796,262.406 80.702,258.952 80.702 C 256.289 80.702,249.123 73.356,249.123 70.626 C 249.123 63.653,240.852 61.607,238.436 67.982 M112.702 99.544 C 146.393 133.200,147.599 134.765,142.869 138.690 C 138.258 142.517,70.878 74.245,74.891 69.811 C 78.932 65.346,76.753 63.632,112.702 99.544 M159.316 75.000 C 158.800 81.243,158.413 81.624,151.754 82.456 C 140.922 83.810,140.503 90.790,151.208 91.561 C 158.569 92.091,158.787 92.282,159.316 98.684 C 160.165 108.936,168.421 108.538,168.421 98.246 L 168.421 91.228 175.561 91.228 C 185.795 91.228,185.291 83.641,175.000 82.789 C 168.603 82.259,168.421 82.053,168.421 75.333 C 168.421 65.130,160.158 64.828,159.316 75.000 M246.221 89.773 C 243.477 92.804,243.084 92.824,240.052 90.080 C 237.020 87.337,237.001 86.943,239.744 83.912 C 242.488 80.880,242.881 80.860,245.913 83.604 C 248.945 86.347,248.964 86.741,246.221 89.773 M195.116 108.019 C 193.300 111.557,188.893 115.971,184.986 118.162 C 176.270 123.051,176.290 125.452,185.088 130.381 C 189.435 132.816,193.279 136.796,195.189 140.840 C 199.062 149.039,202.941 149.156,206.276 141.174 C 207.699 137.768,211.409 133.472,214.520 131.629 C 226.315 124.641,226.525 121.990,215.639 117.481 C 212.457 116.164,208.963 112.585,206.889 108.521 C 202.591 100.095,199.254 99.952,195.116 108.019 M204.830 121.321 C 207.289 123.781,204.588 129.825,201.030 129.825 C 196.804 129.825,193.994 124.938,196.491 121.930 C 199.104 118.781,202.074 118.565,204.830 121.321 M166.667 155.404 C 166.667 162.215,161.110 161.936,153.939 154.765 C 146.784 147.610,146.733 147.469,149.977 143.886 L 153.262 140.255 159.965 146.799 C 163.651 150.399,166.667 154.271,166.667 155.404 M144.346 183.185 C 120.975 185.538,120.720 185.727,121.401 200.178 L 121.930 211.404 137.520 211.125 L 153.110 210.847 151.906 232.178 C 151.244 243.910,149.592 266.535,148.234 282.456 C 144.969 320.729,144.659 331.326,146.742 333.408 C 147.826 334.493,168.430 334.966,201.868 334.675 L 255.263 334.211 255.807 325.645 C 256.107 320.933,255.133 302.775,253.643 285.294 C 252.153 267.812,250.411 243.905,249.773 232.166 L 248.613 210.823 263.076 211.814 C 274.379 212.589,277.878 212.269,279.093 210.350 C 281.078 207.215,281.121 191.097,279.152 187.991 C 275.241 181.820,188.588 178.731,144.346 183.185 M257.018 192.723 C 268.937 193.826,269.315 194.008,269.876 198.915 C 270.417 203.651,270.139 203.897,265.490 202.810 C 256.041 200.601,171.351 199.595,151.792 201.459 C 137.124 202.858,132.215 202.798,131.205 201.209 C 127.154 194.838,131.295 193.333,157.915 191.503 C 182.601 189.805,232.082 190.414,257.018 192.723 M237.504 210.600 C 238.025 211.122,238.681 215.070,238.962 219.372 L 239.474 227.193 201.878 227.667 C 180.495 227.937,163.583 227.442,162.660 226.520 C 159.576 223.436,163.061 210.813,167.242 209.926 C 172.496 208.812,236.332 209.423,237.504 210.600 M240.379 237.281 C 240.395 237.522,241.957 256.967,243.850 280.493 C 245.743 304.018,246.868 323.952,246.349 324.791 C 245.002 326.971,156.618 326.753,155.266 324.566 C 154.306 323.012,158.329 263.607,160.702 244.298 L 161.619 236.842 200.985 236.842 C 222.636 236.842,240.364 237.039,240.379 237.281 M171.930 255.263 C 171.930 260.397,179.547 261.681,181.397 256.859 C 182.917 252.898,181.166 250.877,176.212 250.877 C 172.814 250.877,171.930 251.783,171.930 255.263 M172.141 271.649 C 171.317 273.251,170.107 282.654,169.452 292.544 L 168.260 310.526 172.647 310.526 C 177.636 310.526,178.086 308.902,179.757 284.860 C 180.780 270.143,176.624 262.933,172.141 271.649 "
    ></path>
</svg>